<?xml version="1.0" encoding="UTF-8"?>
<svg width="214px" height="200px" viewBox="0 0 214 200" version="1.1" xmlns="http://www.w3.org/2000/svg" xmlns:xlink="http://www.w3.org/1999/xlink">
    <title>DBEED5CC-5965-4726-8D8D-C2F403F313DD@1.00x</title>
    <g id="App-Specific-(Welcome-screens,-empty-states,-notifications)" stroke="none" stroke-width="1" fill="none" fill-rule="evenodd">
        <g id="Empty-appointments" transform="translate(-81.000000, -279.000000)">
            <g id="illus_empty-appts" transform="translate(81.000000, 279.000000)">
                <path d="M97.8685227,30.5209394 C88.8075682,34.610447 74.3528409,32.8425152 62.5609545,32.416947 C50.7690682,31.9913788 41.6375909,32.9106061 31.4142273,37.7256061 C21.1908636,42.5406061 9.87642424,51.257053 4.23865909,66.9884848 C-1.39910606,82.7199167 -1.36181818,105.476871 4.04735606,124.971947 C9.4565303,144.467023 20.2351591,160.702652 31.9800303,173.083038 C43.7249015,185.463424 56.4352045,193.986947 75.2323485,197.599008 C94.0294924,201.211068 118.913477,199.911667 139.602576,192.152545 C160.291674,184.393424 176.786697,170.172962 187.365917,157.520212 C197.945136,144.867462 202.605311,133.782424 206.889364,119.486576 C211.173417,105.190727 215.07,87.682447 213.7325,69.8361439 C212.395,51.9898409 205.820174,33.8038939 193.548409,21.26625 C181.276644,8.72860606 163.313614,1.84169697 149.151515,0.324242424 C134.989417,-1.19321212 124.629871,2.67013636 117.618939,9.57487879 C110.608008,16.4796212 106.930288,26.4306212 97.8685227,30.5209394 Z" id="Path" fill="#F1F6F7"></path>
                <path d="M64.0986742,126.628015 C64.9283799,126.612416 65.7018228,127.046132 66.121244,127.762191 C66.5406652,128.478251 66.5406652,129.364999 66.121244,130.081059 C65.7018228,130.797118 64.9283799,131.230834 64.0986742,131.215642 L48.9046742,131.215642 C43.1550455,131.215642 38.4324545,127.997129 34.7466288,123.328848 C30.2672197,117.654606 27.3247197,109.778758 26.0139697,103.225818 L13.1699167,39.0047424 C12.9557759,37.9399167 12.8471695,36.8565678 12.8456742,35.7704242 C12.952292,30.8843707 15.0134052,26.2450411 18.5677424,22.8907045 C22.0983919,19.4262056 26.5603851,17.0632615 31.4101742,16.0897197 C32.9408924,15.7812327 34.4983191,15.6245669 36.0598106,15.622 L42.8259394,15.622 C44.0758601,15.6454989 45.076834,16.6654683 45.076834,17.9156098 C45.076834,19.1657514 44.0758601,20.1857208 42.8259394,20.2092197 L36.0606212,20.2092197 C34.7999497,20.211603 33.5425766,20.3381277 32.3067045,20.5869621 C28.3388899,21.377937 24.6865013,23.3050937 21.7939545,26.1339394 C19.1125553,28.6353476 17.5426155,32.1050343 17.4337045,35.7704242 C17.4345912,36.5557293 17.5127865,37.3390397 17.6671591,38.1090227 L30.5120227,102.327667 C31.7100985,108.319667 34.3518636,115.459485 38.3303182,120.498212 C41.195,124.126485 44.7478864,126.628015 48.9046742,126.628015 L64.0986742,126.628015 Z" id="Path" fill="#C8D3DB"></path>
                <path d="M64.0986742,123.876008 C65.91654,123.852966 67.6062647,124.809584 68.5219142,126.380174 C69.4375638,127.950764 69.4375638,129.892486 68.5219142,131.463076 C67.6062647,133.033666 65.91654,133.990284 64.0986742,133.967649 L48.9046742,133.967649 C42.1993409,133.967649 36.7739545,130.319515 32.5960909,125.027879 C27.8135152,118.971841 24.694303,110.654212 23.3154621,103.760818 L20.7296288,90.8324621 C20.3774732,89.0648784 20.9950626,87.243691 22.3497572,86.0549234 C23.7044518,84.8661559 25.5904411,84.4904103 27.2972913,85.0692265 C29.0041415,85.6480426 30.2725414,87.0934845 30.624697,88.8610682 L33.2105303,101.789424 C34.3405152,107.443402 36.8023258,114.140629 40.4800455,118.799182 C42.8526894,121.804098 45.7035909,123.876008 48.9046742,123.876008 L64.0986742,123.876008 Z" id="Path" fill="#AABCC6"></path>
                <path d="M27.9367273,89.7616515 C28.8486591,94.2564621 29.7614015,98.7512727 30.490947,101.900477 C30.969915,104.089945 31.5737217,106.250226 32.2994091,108.370735 C32.7660174,109.719487 33.3086414,111.040729 33.9246742,112.328114 C34.5010152,113.532674 35.1405833,114.708053 35.7493485,115.714826 C36.3581136,116.721598 36.9474242,117.562197 37.5326818,118.401985" id="Path" stroke="#777F90" stroke-width="2.4001" stroke-linecap="round" stroke-linejoin="round"></path>
                <path d="M44.7762576,126.628015 C43.9465519,126.612416 43.173109,127.046132 42.7536878,127.762191 C42.3342666,128.478251 42.3342666,129.364999 42.7536878,130.081059 C43.173109,130.797118 43.9465519,131.230834 44.7762576,131.215642 L59.9702576,131.215642 C65.720697,131.215642 70.4432879,127.997129 74.128303,123.328848 C78.6085227,117.654606 81.5502121,109.778758 82.8609621,103.225818 L95.7050152,39.0071742 C95.9195749,37.9424115 96.0281855,36.8590211 96.0292576,35.7728561 C95.9226398,30.8868025 93.8615266,26.2474729 90.3071894,22.8931364 C86.7765399,19.4286374 82.3145467,17.0656933 77.4647576,16.0921515 C75.9343074,15.7837019 74.3771532,15.6270362 72.8159318,15.6240248 L66.0489924,15.6240248 C65.2192868,15.6088331 64.4458438,16.042549 64.0264226,16.7586081 C63.6070015,17.4746672 63.6070015,18.3614161 64.0264226,19.0774752 C64.4458438,19.7935343 65.2192868,20.2272502 66.0489924,20.2116515 L72.8151212,20.2116515 C74.0755267,20.2139934 75.3326349,20.3405188 76.5682273,20.5893939 C80.5361682,21.3800131 84.1886529,23.3072205 87.0809773,26.1363712 C89.7626758,28.6375647 91.3326752,32.1073831 91.4412273,35.7728561 C91.4407417,36.5581812 91.3625425,37.341531 91.2077727,38.1114545 L78.3637197,102.327667 C77.1656439,108.319667 74.5238788,115.459485 70.5446136,120.498212 C67.6807424,124.126485 64.1278561,126.628015 59.9702576,126.628015 L44.7762576,126.628015 Z" id="Path" fill="#C8D3DB"></path>
                <path d="M47.2988636,46.5855303 L181.240167,46.5855303 C185.420205,46.5855303 188.808795,49.9741208 188.808795,54.1541591 L188.808795,168.141583 C188.808795,172.321174 185.420568,175.709402 181.240977,175.709402 L47.2988636,175.709402 C43.1192731,175.709402 39.7310455,172.321174 39.7310455,168.141583 L39.7310455,54.1533485 C39.7310455,49.9739433 43.1194585,46.5855303 47.2988636,46.5855303 Z" id="Path" fill="#149A55" fill-rule="nonzero"></path>
                <rect id="Rectangle" fill="#FFFFFF" fill-rule="nonzero" x="53.0898333" y="73.8778258" width="122.360174" height="84.6313258" rx="7.285"></rect>
                <line x1="114.269515" y1="85.3454697" x2="114.269515" y2="147.043939" id="Path" stroke="#AABCC6" stroke-width="2.4001" stroke-linecap="round" stroke-linejoin="round"></line>
                <line x1="85.6" y1="85.3454697" x2="85.6" y2="147.043939" id="Path" stroke="#AABCC6" stroke-width="2.4001" stroke-linecap="round" stroke-linejoin="round"></line>
                <line x1="142.93903" y1="85.3454697" x2="142.93903" y2="147.043939" id="Path" stroke="#AABCC6" stroke-width="2.4001" stroke-linecap="round" stroke-linejoin="round"></line>
                <line x1="65.6477424" y1="104.152341" x2="162.202273" y2="104.152341" id="Path" stroke="#AABCC6" stroke-width="2.4001" stroke-linecap="round" stroke-linejoin="round"></line>
                <line x1="65.6477424" y1="128.237879" x2="162.202273" y2="128.237879" id="Path" stroke="#AABCC6" stroke-width="2.4001" stroke-linecap="round" stroke-linejoin="round"></line>
                <rect id="Rectangle" fill="#0D8850" fill-rule="nonzero" x="75.5655076" y="36.3791894" width="9.63405303" height="23.134697" rx="3.962"></rect>
                <rect id="Rectangle" fill="#0D8850" fill-rule="nonzero" x="143.798273" y="36.3791894" width="9.63405303" height="23.134697" rx="3.962"></rect>
                <path d="M39.7115909,13.6027803 L45.7538485,12.5960076 C47.5023258,12.3041894 48.9760076,14.0461818 48.9760076,15.8181667 L48.9760076,20.1840909 C48.9760076,21.9560758 47.4917879,23.7507576 45.7538485,23.40625 L39.7115909,22.1960152 C37.3940682,21.7331591 35.4153785,20.2635303 35.4153785,17.899803 L35.4153785,17.899803 C35.4145682,15.5368864 37.3802879,13.9918712 39.7115909,13.6027803 Z" id="Path" fill="#AABCC6"></path>
                <path d="M69.1641515,13.6027803 L63.1210833,12.5960076 C61.3734167,12.3041894 59.8989242,14.0461818 59.8989242,15.8181667 L59.8989242,20.1840909 C59.8989242,21.9560758 61.3839545,23.7507576 63.1210833,23.40625 L69.1641515,22.1976364 C71.4808636,21.7347803 73.4603636,20.2651515 73.4603636,17.9014242 L73.4603636,17.9014242 C73.4603636,15.5368864 71.4954545,13.9918712 69.1641515,13.6027803 Z" id="Path" fill="#AABCC6"></path>
                <path d="M149.584379,138.090795 C148.509934,137.422849 148.180402,136.010362 148.848348,134.935917 C149.516295,133.861472 150.928782,133.53194 152.003227,134.199886 L152.124818,134.280947 C157.874447,137.840318 163.623265,141.390773 168.957053,143.734235 C171.415796,144.836476 173.974745,145.699955 176.598636,146.312773 C178.980082,146.862035 181.419684,147.118463 183.863288,147.076364 C186.325364,147.068558 188.767049,146.629603 191.077682,145.779394 C192.802499,145.14968 194.330598,144.075956 195.507644,142.666667 C196.699044,141.065091 197.499601,139.20721 197.845432,137.24128 C198.304536,134.99175 198.321331,132.674357 197.894879,130.418409 C197.617539,128.957991 197.022261,127.576482 196.151265,126.371864 C195.336209,125.272662 194.265966,124.388258 193.032864,123.794947 C191.700309,123.200025 190.266887,122.863607 188.808795,122.803576 L188.808795,118.202576 C190.95774,118.269632 193.07104,118.769766 195.022091,119.673015 C196.921759,120.588949 198.569889,121.95358 199.824121,123.649038 C201.094086,125.389906 201.964791,127.38926 202.374288,129.504856 C202.918329,132.358165 202.901534,135.290111 202.324841,138.137 C201.840087,140.815441 200.732149,143.342318 199.090523,145.513515 C197.41202,147.55725 195.221648,149.119404 192.742667,150.04075 C189.92914,151.084971 186.954275,151.627652 183.953265,151.644129 C181.142423,151.694327 178.335943,151.401702 175.595917,150.772727 C172.689089,150.097362 169.854024,149.143744 167.129947,147.925068 C161.5165,145.459205 155.619341,141.816341 149.720561,138.166182 L149.584379,138.090795 Z" id="Path" fill="#262F40"></path>
                <circle id="Oval" stroke="#6F7C8D" stroke-width="2.4001" fill="#262F40" fill-rule="nonzero" stroke-linecap="round" stroke-linejoin="round" transform="translate(150.794337, 136.145147) rotate(-13.396000) translate(-150.794337, -136.145147) " cx="150.794337" cy="136.145147" r="15.7103561"></circle>
                <path d="M150.793803,146.410045 C154.945234,146.410373 158.688071,143.909864 160.276982,140.074535 C161.865894,136.239207 160.987959,131.82439 158.052569,128.888769 C155.11718,125.953148 150.702433,125.074864 146.866979,126.663472 C143.031525,128.252081 140.53072,131.99472 140.53072,136.146152 C140.541424,141.809988 145.129968,146.398894 150.793803,146.410045 L150.793803,146.410045 Z" id="Path" fill="#777F90"></path>
                <line x1="57.2741818" y1="51.257053" x2="171.264848" y2="51.257053" id="Path" stroke="#0D8850" stroke-width="4.7999" stroke-linecap="round" stroke-linejoin="round"></line>
                <line x1="47.645803" y1="15.622" x2="47.645803" y2="20.2943333" id="Path" stroke="#777F90" stroke-width="2.4001" stroke-linecap="round" stroke-linejoin="round"></line>
                <line x1="61.1910303" y1="15.622" x2="61.1910303" y2="20.2943333" id="Path" stroke="#777F90" stroke-width="2.4001" stroke-linecap="round" stroke-linejoin="round"></line>
                <line x1="77.2458939" y1="40.4208712" x2="77.2458939" y2="55.4713939" id="Path" stroke="#00694F" stroke-width="2.4001" stroke-linecap="round" stroke-linejoin="round"></line>
                <line x1="145.404083" y1="40.4208712" x2="145.404083" y2="55.4713939" id="Path" stroke="#00694F" stroke-width="2.4001" stroke-linecap="round" stroke-linejoin="round"></line>
            </g>
        </g>
    </g>
</svg>